<svg width="1376" height="189" viewBox="0 0 1376 189" fill="none" xmlns="http://www.w3.org/2000/svg">
<path d="M0 187.562V4.90385e-07H55.2674V187.562H0Z" fill="#030303"/>
<path d="M210.451 187.562L206.108 163.179H174.922L170.974 187.562H121.234L155.578 4.90385e-07H231.768L265.718 187.562H210.451ZM190.318 27.5984C188.212 54.7503 184.659 88.8687 179.659 129.954H200.976C195.976 88.8687 192.423 54.7503 190.318 27.5984Z" fill="#030303"/>
<path d="M407.439 104.499L389.28 187.562H350.198L332.434 104.499C331.381 98.9613 328.881 85.2067 324.933 63.2352C325.46 80.741 325.723 94.4955 325.723 104.499V187.562H277.561V4.90385e-07H354.541L367.963 72.6133C368.752 76.3645 370.068 86.993 371.91 104.499C373.753 86.993 375.069 76.3645 375.858 72.6133L389.28 4.90385e-07H468.628V187.562H414.545V104.499C414.545 94.3169 414.808 80.2944 415.335 62.4314C414.545 66.3612 413.229 73.4171 411.387 83.5991C409.545 93.6024 408.229 100.569 407.439 104.499Z" fill="#030303"/>
<path d="M542.804 187.562V4.90385e-07H598.072V152.193H638.733V187.562H542.804Z" fill="#030303"/>
<path d="M704.455 4.90385e-07V142.815C704.455 147.102 704.982 149.96 706.034 151.389C707.35 152.818 710.245 153.533 714.719 153.533H719.062C723.536 153.533 726.299 152.818 727.352 151.389C728.668 149.96 729.326 147.102 729.326 142.815V4.90385e-07H781.435V147.37C781.435 163.626 777.75 174.611 770.381 180.327C763.012 186.044 748.538 188.902 726.957 188.902H704.06C682.48 188.902 667.874 186.044 660.241 180.327C652.872 174.611 649.188 163.626 649.188 147.37V4.90385e-07H704.455Z" fill="#030303"/>
<path d="M930.197 104.499L912.038 187.562H872.956L855.191 104.499C854.139 98.9613 851.639 85.2067 847.691 63.2352C848.217 80.741 848.48 94.4955 848.48 104.499V187.562H800.319V4.90385e-07H877.298L890.72 72.6133C891.51 76.3645 892.826 86.993 894.668 104.499C896.51 86.993 897.826 76.3645 898.616 72.6133L912.038 4.90385e-07H991.386V187.562H937.303V104.499C937.303 94.3169 937.566 80.2944 938.093 62.4314C937.303 66.3612 935.987 73.4171 934.145 83.5991C932.303 93.6024 930.987 100.569 930.197 104.499Z" fill="#030303"/>
<path d="M1011.59 187.562V4.90385e-07H1066.86V187.562H1011.59Z" fill="#030303"/>
<path d="M1221.76 132.901V154.605C1221.76 168.538 1224.13 179.524 1228.86 187.562H1172.02C1168.33 182.739 1166.49 173.004 1166.49 158.356V125.399C1166.49 120.576 1165.44 117.092 1163.33 114.949C1161.23 112.627 1157.41 111.465 1151.88 111.465H1141.62V187.562H1086.35V4.90385e-07H1166.88C1188.73 4.90385e-07 1203.33 2.85809 1210.7 8.57426C1218.07 14.2904 1221.76 25.2762 1221.76 41.5316V55.7327C1221.76 67.5223 1219.91 76.3645 1216.23 82.2593C1212.81 87.9755 1206.49 91.9054 1197.28 94.049C1206.49 96.1925 1212.81 100.301 1216.23 106.374C1219.91 112.269 1221.76 121.111 1221.76 132.901ZM1166.49 65.3788V46.0867C1166.49 41.7995 1165.83 38.9414 1164.52 37.5124C1163.46 36.0834 1160.7 35.3688 1156.23 35.3688H1141.62V76.0966H1156.23C1160.7 76.0966 1163.46 75.3821 1164.52 73.953C1165.83 72.524 1166.49 69.6659 1166.49 65.3788Z" fill="#030303"/>
<path d="M1320.73 187.562L1316.39 163.179H1285.2L1281.26 187.562H1231.52L1265.86 4.90385e-07H1342.05L1376 187.562H1320.73ZM1300.6 27.5984C1298.49 54.7503 1294.94 88.8687 1289.94 129.954H1311.26C1306.26 88.8687 1302.7 54.7503 1300.6 27.5984Z" fill="#030303"/>
<path fill-rule="evenodd" clip-rule="evenodd" d="M1370.28 11.8177C1369.74 12.127 1369.2 12.4025 1368.67 12.6432C1368.45 12.4549 1368.23 12.2462 1368.01 12.0176C1367.89 11.8946 1367.77 11.7666 1367.65 11.6335C1368.3 11.3704 1368.95 11.0486 1369.61 10.6683C1371.12 9.79654 1371.63 7.89644 1370.76 6.38655C1369.68 4.50872 1368.35 3.04287 1367.12 2.18065C1365.84 1.28463 1364.87 1.17451 1364.32 1.49375C1363.76 1.813 1363.37 2.70644 1363.51 4.26511C1363.56 4.85024 1364.25 5.09614 1364.73 4.76719C1365.08 4.53276 1365.44 4.30632 1365.82 4.08984C1366.35 3.78063 1366.89 3.50508 1367.43 3.26438C1367.76 3.55659 1368.1 3.89442 1368.44 4.27406C1367.8 4.53716 1367.14 4.85894 1366.48 5.23931C1364.97 6.11103 1364.46 8.01109 1365.33 9.52096C1366.42 11.3988 1367.74 12.8646 1368.97 13.7269C1370.25 14.6229 1371.22 14.733 1371.78 14.4138C1372.2 14.1696 1372.53 13.5978 1372.6 12.5928C1372.67 11.5666 1371.44 11.1219 1370.56 11.6519C1370.47 11.7078 1370.37 11.7631 1370.28 11.8177ZM1374.91 7.78779C1374.15 8.87768 1373.77 10.208 1373.89 11.5314C1373.93 11.9445 1373.94 12.3361 1373.92 12.6802C1373.84 13.8857 1373.42 14.999 1372.44 15.5632C1371.18 16.2928 1369.59 15.7776 1368.21 14.8149C1366.79 13.8184 1365.34 12.192 1364.18 10.1846C1363.97 9.80966 1363.77 9.43273 1363.58 9.05634C1363.33 8.5282 1362.61 8.39854 1362.27 8.87997C1361.38 10.1624 1361.27 11.1305 1361.59 11.6835C1361.91 12.2364 1362.8 12.6251 1364.36 12.4904C1364.53 12.4758 1364.7 12.4553 1364.88 12.4288C1365.19 12.8441 1365.52 13.2343 1365.85 13.5961C1365.37 13.7022 1364.91 13.7747 1364.47 13.8127C1362.8 13.9575 1361.17 13.6108 1360.44 12.3471C1359.71 11.0835 1360.22 9.49776 1361.19 8.11979C1361.94 7.03268 1362.3 5.70066 1362.19 4.37942C1362.04 2.7047 1362.39 1.07385 1363.65 0.344287C1364.92 -0.385276 1366.5 0.12987 1367.88 1.09261C1369.31 2.08915 1370.75 3.71556 1371.91 5.72291C1372.13 6.09824 1372.33 6.47519 1372.51 6.85124C1372.77 7.37937 1373.48 7.50903 1373.82 7.02761C1374.72 5.74514 1374.83 4.77705 1374.51 4.2241C1374.19 3.67116 1373.29 3.28248 1371.73 3.41722C1371.57 3.43174 1371.39 3.45226 1371.22 3.47878C1370.9 3.06442 1370.58 2.67419 1370.24 2.31146C1370.72 2.20543 1371.18 2.13288 1371.62 2.09486C1373.3 1.95009 1374.93 2.29682 1375.66 3.56046C1376.39 4.8241 1375.87 6.40982 1374.91 7.78779Z" fill="#030303"/>
</svg>
