<svg width="85" height="16" viewBox="0 0 85 16" fill="none" xmlns="http://www.w3.org/2000/svg">
<path d="M17.8478 8.70609C17.8478 8.75562 17.8425 8.81044 17.8319 8.87045C17.828 8.89271 17.8253 8.91525 17.8265 8.93782C17.8281 8.9713 17.8322 9.00478 17.8387 9.03826C17.844 9.0658 17.8478 9.09367 17.8478 9.12172V9.4311C17.8478 9.56289 17.8403 9.70199 17.8256 9.84841C17.8256 9.97796 17.8371 10.0961 17.8601 10.2028C17.866 10.2302 17.8695 10.2581 17.8701 10.2862C17.872 10.3688 17.8793 10.4353 17.8919 10.4856C17.9213 10.6467 17.9432 10.8079 17.9579 10.9689C17.9872 11.13 18.0316 11.2909 18.0904 11.452C18.2521 11.8327 18.4579 12.1476 18.7078 12.3965C18.9724 12.6455 19.3178 12.8434 19.7441 12.9898C19.8617 13.0191 19.9792 13.0409 20.0968 13.0555C20.2144 13.0701 20.3321 13.0922 20.4497 13.1215C20.5061 13.144 20.5582 13.1578 20.6059 13.1631C20.6339 13.1661 20.6619 13.1612 20.6899 13.1577C20.7378 13.1516 20.7901 13.1542 20.8467 13.1654C20.9056 13.1801 21.0012 13.1876 21.1334 13.1876C21.2244 13.1775 21.2945 13.1674 21.3438 13.1573C21.38 13.1499 21.4167 13.1437 21.4537 13.1437H21.6862C21.7144 13.1437 21.7424 13.1401 21.7698 13.1337C21.8737 13.1093 21.9777 13.0906 22.0816 13.0776C22.1991 13.063 22.3095 13.0409 22.4123 13.0116C22.6181 12.9677 22.7799 12.9166 22.8975 12.8581C23.1621 12.7409 23.3898 12.5869 23.5809 12.3965C23.7866 12.1915 23.9485 11.9647 24.0661 11.7157C24.2278 11.335 24.3233 10.8882 24.3527 10.3757C24.3562 10.3131 24.3594 10.2503 24.3623 10.1873C24.3709 10.0029 24.5227 9.85679 24.708 9.85679H27.4523C27.6452 9.85679 27.8006 10.0145 27.7957 10.2066C27.7947 10.2484 27.7936 10.2901 27.7924 10.3318C27.7777 10.859 27.7118 11.335 27.5942 11.7597C27.3884 12.4479 27.1236 13.0484 26.8002 13.561C26.4915 14.0588 26.0798 14.4836 25.5653 14.835C25.1097 15.1572 24.5731 15.4207 23.9557 15.6257C23.8234 15.6696 23.6838 15.7064 23.5368 15.7357C23.4045 15.765 23.2721 15.7942 23.1398 15.8235C23.0516 15.8527 22.9635 15.8674 22.8753 15.8674C22.809 15.8674 22.7367 15.8793 22.6585 15.9031C22.6413 15.9083 22.6238 15.9128 22.606 15.9156C22.4364 15.9428 22.2469 15.9634 22.0375 15.9773C21.817 15.992 21.6037 15.9991 21.3979 15.9991C20.0013 16.0138 18.8105 15.8455 17.8256 15.494C16.8407 15.1279 16.069 14.542 15.5104 13.7366C15.3193 13.473 15.1575 13.202 15.0252 12.9238C14.9076 12.6309 14.7974 12.316 14.6945 11.9792C14.6651 11.906 14.6504 11.8475 14.6504 11.8036C14.6504 11.745 14.6357 11.679 14.6063 11.6058C14.4887 11.1958 14.43 10.7344 14.43 10.2218V5.39476C14.43 5.2052 14.5843 5.05153 14.7745 5.05153H17.5033C17.6936 5.05153 17.8478 5.2052 17.8478 5.39476V8.70609Z" fill="white"/>
<path d="M53.3588 14.9228C53.3735 15.1571 53.3441 15.3329 53.2706 15.4501C53.2118 15.5525 53.0796 15.6332 52.8739 15.6918C52.771 15.721 52.6607 15.7282 52.5432 15.7135C52.4256 15.6989 52.3078 15.6918 52.1902 15.6918H50.8891C50.7274 15.6918 50.5731 15.6843 50.4261 15.6696C50.2938 15.655 50.1836 15.6111 50.0954 15.5379C50.0219 15.4647 49.9778 15.3548 49.9632 15.2084C49.9485 15.062 49.9409 14.9082 49.9409 14.7472V14.3188C49.9409 14.1293 50.0952 13.9756 50.2855 13.9756H53.0142C53.2045 13.9756 53.3588 14.1293 53.3588 14.3188V14.9228Z" fill="white"/>
<path d="M84.3227 13.9756C84.464 13.9756 84.5908 14.0617 84.644 14.1922C84.6675 14.25 84.6913 14.3077 84.7154 14.3653C84.7239 14.3854 84.7348 14.4044 84.745 14.4238C84.7631 14.4583 84.7722 14.4928 84.7722 14.5273C84.7722 14.5442 84.7771 14.5637 84.787 14.5856C84.8031 14.6215 84.821 14.6568 84.8317 14.6946C84.8434 14.7356 84.8578 14.7819 84.8749 14.8336C84.88 14.8491 84.8863 14.864 84.8932 14.8788C84.9273 14.9515 84.9515 15.0293 84.9659 15.1118C84.9694 15.1321 84.9743 15.1521 84.9798 15.172C85.0015 15.25 85.0057 15.3282 84.9926 15.4062C84.9779 15.494 84.9267 15.56 84.8385 15.6039C84.7209 15.6772 84.5223 15.7064 84.243 15.6918C83.9784 15.6771 83.7579 15.6696 83.5815 15.6696H82.5452C82.4367 15.6696 82.3346 15.676 82.2387 15.6885C82.2225 15.6906 82.2062 15.6919 82.1899 15.6914C82.1099 15.6889 82.0296 15.6744 81.9496 15.6478C81.788 15.6039 81.6705 15.5158 81.597 15.3841C81.5235 15.2669 81.4648 15.1424 81.4207 15.0107C81.3913 14.8789 81.3469 14.7472 81.2881 14.6155C81.2698 14.5572 81.2511 14.499 81.2319 14.4408C81.1572 14.2137 81.3238 13.9756 81.5636 13.9756H84.3227Z" fill="white"/>
<path d="M33.6187 15.1645C33.6186 15.2705 33.5946 15.3586 33.5465 15.4286C33.5364 15.4433 33.5263 15.4581 33.5163 15.4727C33.4547 15.5624 33.3492 15.6208 33.1998 15.6478C33.0969 15.6771 32.9866 15.6917 32.869 15.6918C32.7514 15.6771 32.6337 15.6696 32.5161 15.6696H30.9283C30.796 15.655 30.6857 15.6111 30.5975 15.5379C30.5094 15.4647 30.4581 15.3548 30.4434 15.2084C30.4287 15.0473 30.4212 14.8862 30.4212 14.7251C30.4212 14.6903 30.4495 14.6621 30.4845 14.6621H33.2741C33.4644 14.6621 33.6187 14.8157 33.6187 15.0053V15.1645Z" fill="white"/>
<path d="M34.6328 0.0294017C34.8826 0.0294017 35.0738 0.0804784 35.2061 0.182918C35.309 0.256125 35.3827 0.366011 35.4268 0.512408C35.4709 0.644207 35.5149 0.776132 35.559 0.907931C35.6473 1.14224 35.7281 1.38399 35.8016 1.63294C35.8898 1.86718 35.9779 2.10875 36.0661 2.35762C36.4042 3.28022 36.7203 4.21763 37.0143 5.16952C37.323 6.12138 37.6537 7.06598 38.0065 8.0032C38.0947 8.22285 38.1747 8.44669 38.2464 8.67458L38.3844 9.13312C38.456 9.36101 38.5357 9.58485 38.6239 9.8045C38.6533 9.87769 38.683 9.95086 38.7124 10.0241C38.7418 10.0973 38.793 10.1561 38.8665 10.2C38.8959 10.2147 38.9256 10.2293 38.955 10.2439C38.9558 10.2443 38.9566 10.2447 38.9574 10.2451C39.0142 10.2709 39.0778 10.2181 39.1307 10.1851C39.2019 10.1406 39.2536 10.0651 39.2857 9.95835C39.3298 9.81191 39.3739 9.67999 39.418 9.56283C39.5356 9.22604 39.6383 8.89651 39.7265 8.57436C39.7464 8.50911 39.7667 8.44388 39.7873 8.37865C39.8321 8.23658 39.9647 8.14063 40.1142 8.14063H42.3269C42.5671 8.14063 42.7336 8.37945 42.6627 8.60804C42.6616 8.61145 42.6605 8.61486 42.6595 8.61827C42.6044 8.79678 42.5427 8.97536 42.4746 9.15388C42.4656 9.17753 42.453 9.19965 42.4422 9.22256C42.4253 9.25859 42.4169 9.29885 42.4169 9.34328C42.4169 9.37886 42.4072 9.41446 42.3879 9.45005C42.3787 9.46712 42.3688 9.48391 42.361 9.50171C42.3071 9.62554 42.2595 9.75576 42.2184 9.89232C42.189 10.0388 42.1374 10.1853 42.0639 10.3318C42.0051 10.4635 41.9536 10.6026 41.9095 10.7491C41.8801 10.8955 41.8361 11.0421 41.7773 11.1885C41.6009 11.6132 41.4466 12.0453 41.3143 12.4847C41.1858 12.8972 41.0432 13.3099 40.887 13.7224C40.8778 13.7466 40.8651 13.7691 40.8536 13.7922C40.8427 13.814 40.8354 13.8358 40.8318 13.8576L40.8264 13.9233C40.8222 13.9484 40.8132 13.9734 40.7995 13.9985C40.7906 14.0147 40.7811 14.0306 40.7736 14.0475C40.7055 14.2009 40.6505 14.3608 40.6087 14.5273C40.5646 14.6884 40.5056 14.8496 40.4321 15.0107C40.3916 15.1047 40.3512 15.1926 40.3107 15.2744C40.3035 15.289 40.2975 15.304 40.2915 15.3192C40.2612 15.3969 40.2124 15.4624 40.1454 15.5158C40.083 15.5656 40.0206 15.5996 39.9581 15.6176C39.9364 15.6239 39.9136 15.6254 39.891 15.6267C39.8368 15.6298 39.7755 15.6399 39.7071 15.6571C39.6761 15.6649 39.6443 15.6696 39.6123 15.6696H39.1532C39.0503 15.6696 38.9253 15.6771 38.7784 15.6918H38.3595C38.2272 15.6918 38.1022 15.6843 37.9846 15.6696C37.8671 15.655 37.779 15.6257 37.7202 15.5818C37.6026 15.5086 37.5217 15.428 37.4776 15.3401C37.4335 15.2377 37.3819 15.1206 37.3231 14.9889C37.2496 14.8132 37.1834 14.6373 37.1246 14.4616C37.0805 14.2712 37.0218 14.088 36.9483 13.9122L36.882 13.7148C36.8085 13.5391 36.7423 13.3558 36.6835 13.1654C36.6247 12.9604 36.5588 12.77 36.4853 12.5943C36.4812 12.582 36.4771 12.5702 36.4729 12.5591C36.4543 12.5092 36.4434 12.4564 36.4329 12.4042C36.4315 12.3972 36.4299 12.3902 36.4281 12.3832C36.4228 12.3626 36.4138 12.3433 36.4037 12.3246C36.3374 12.2012 36.2837 12.0714 36.2427 11.9353C36.1986 11.7889 36.1471 11.6423 36.0883 11.4959C36.0799 11.4792 36.0715 11.4601 36.0632 11.4387C36.0497 11.4043 36.0462 11.3671 36.0396 11.3308C36.0359 11.3105 36.03 11.2923 36.022 11.2763C35.9632 11.1299 35.9117 10.9833 35.8676 10.8369C35.8382 10.6905 35.7869 10.5441 35.7135 10.3978C35.5959 10.1049 35.4856 9.79719 35.3827 9.47501C35.2798 9.15284 35.1696 8.83798 35.052 8.53045C34.9197 8.16438 34.7948 7.79096 34.6772 7.41025C34.5596 7.02949 34.4196 6.66331 34.2579 6.31184C34.1896 6.12132 34.1149 5.96248 34.0339 5.8352C34.0218 5.81611 34.0076 5.79831 33.9904 5.78356C33.985 5.77894 33.9796 5.77457 33.9742 5.77044C33.9449 5.74798 33.9145 5.71869 33.8776 5.71876C33.8593 5.71879 33.8391 5.7261 33.8172 5.74068C33.7437 5.7846 33.7068 5.85777 33.7068 5.96023C33.7068 6.06274 33.6921 6.16542 33.6627 6.26793C33.6354 6.36328 33.6208 6.465 33.6189 6.57303C33.6186 6.58926 33.6199 6.60548 33.622 6.62158C33.6344 6.71713 33.6405 6.81893 33.6405 6.92691V7.41025C33.6405 7.57125 33.6333 7.73226 33.6187 7.89326V12.9459C33.6187 13.1355 33.4644 13.2891 33.2741 13.2891H30.7658C30.5755 13.2891 30.4212 13.1355 30.4212 12.9459V0.864021C30.4212 0.746867 30.4287 0.637041 30.4434 0.534531C30.4581 0.417375 30.48 0.329316 30.5094 0.270737C30.565 0.173816 30.6734 0.103113 30.8342 0.058576C30.8528 0.053424 30.8707 0.0453755 30.8897 0.0417987C30.8953 0.0407496 30.9008 0.0402243 30.9064 0.0402232C30.9365 0.0402172 30.9653 0.0529825 30.9946 0.0457704C31.0238 0.0385645 31.0543 0.0294017 31.0844 0.0294017H34.6328Z" fill="white"/>
<path d="M59.4653 6.46569C59.4653 6.64135 59.5018 6.78051 59.5753 6.883C59.6341 6.97084 59.7297 7.02934 59.862 7.05864C59.9943 7.08793 60.1414 7.11003 60.3031 7.12467C60.4647 7.13931 60.6338 7.14645 60.8101 7.14646C60.9865 7.13181 61.1411 7.12467 61.2734 7.12467H62.5742C62.6771 7.12467 62.7874 7.13182 62.905 7.14646C62.9995 7.14646 63.0846 7.13702 63.1602 7.1181C63.1961 7.10912 63.2327 7.10255 63.2698 7.10255H63.4581C63.4863 7.10255 63.5143 7.09893 63.5418 7.09281C63.644 7.07003 63.7405 7.05864 63.8313 7.05864C63.9488 7.05864 64.0591 7.04401 64.162 7.01473C64.4119 6.94151 64.6324 6.8463 64.8235 6.72915C64.9148 6.67317 64.9992 6.60869 65.077 6.53591C65.1491 6.46839 65.2419 6.42446 65.3409 6.42446H68.2081C68.4193 6.42446 68.557 6.64189 68.4398 6.81697C68.4137 6.85595 68.3818 6.90075 68.3441 6.95127C68.3344 6.96431 68.3236 6.97652 68.3124 6.98826C68.2759 7.02635 68.2449 7.06448 68.2194 7.10255C68.1797 7.15531 68.1339 7.20808 68.0822 7.26084C68.0708 7.27246 68.0602 7.28479 68.05 7.29746C68.0094 7.34809 67.9628 7.393 67.9106 7.43204C67.8224 7.50526 67.7343 7.5787 67.6461 7.65192C67.5579 7.72513 67.4623 7.79827 67.3594 7.87147C67.3006 7.9154 67.2416 7.96674 67.1828 8.02532C67.1241 8.06925 67.0799 8.12779 67.0506 8.20096C67.0212 8.28878 67.0359 8.36195 67.0946 8.42051C67.1534 8.47909 67.205 8.52328 67.2491 8.55257C67.3961 8.66971 67.5432 8.78672 67.6902 8.90385C67.8372 9.02099 67.9621 9.1601 68.065 9.32116C68.2414 9.57011 68.381 9.82649 68.4839 10.0901C68.5288 10.2051 68.5721 10.3271 68.6141 10.4561C68.684 10.6713 68.5184 10.8865 68.2914 10.8865H65.5015C65.3654 10.8865 65.2432 10.8061 65.182 10.685C65.1313 10.5849 65.078 10.4891 65.022 10.3978C64.8603 10.1342 64.6323 9.9363 64.3383 9.8045C64.2649 9.77524 64.1914 9.75345 64.1179 9.73881C64.0444 9.72416 63.9635 9.70206 63.8753 9.67277C63.6107 9.58491 63.3019 9.54105 62.949 9.54105H60.1692C60.141 9.54105 60.113 9.54454 60.0856 9.55114C59.9849 9.57539 59.8956 9.59383 59.8179 9.60674C59.7297 9.6214 59.6563 9.66561 59.5975 9.73881C59.48 9.88525 59.4284 10.1121 59.4431 10.4196C59.4578 10.727 59.4653 11.0053 59.4653 11.2542V14.0661C59.4653 14.1832 59.4578 14.3077 59.4431 14.4395V15.1206C59.4431 15.2084 59.4284 15.2891 59.399 15.3623C59.3549 15.494 59.2667 15.5818 59.1345 15.6257C59.061 15.655 58.9726 15.6696 58.8697 15.6696H57.5467C57.3116 15.6696 57.0617 15.6771 56.7971 15.6918C56.5325 15.6918 56.3339 15.6404 56.2016 15.5379C56.084 15.4647 56.0253 15.3327 56.0253 15.1424V4.7083C56.0253 4.51873 56.1795 4.36506 56.3698 4.36506H59.1207C59.311 4.36506 59.4653 4.51873 59.4653 4.7083V6.46569Z" fill="white"/>
<path d="M68.8376 12.2594C68.8732 12.2594 68.9026 12.2871 68.9028 12.3225C68.9028 12.3279 68.9035 12.3335 68.9047 12.3388C68.9154 12.3861 68.9167 12.4383 68.9086 12.4951C68.9054 12.5175 68.9026 12.54 68.9036 12.5626C68.9059 12.6123 68.9131 12.6667 68.925 12.726C68.9362 12.7708 68.9389 12.8157 68.933 12.8605C68.9293 12.8883 68.9247 12.9162 68.9262 12.9442C68.9288 12.9918 68.9356 13.0437 68.9469 13.0997C68.9763 13.2461 68.991 13.3999 68.991 13.561C68.991 13.722 69.0056 13.8758 69.035 14.0222L69.1013 14.4177C69.1307 14.5494 69.1601 14.6812 69.1895 14.8129C69.2189 14.9446 69.2482 15.0692 69.2776 15.1863C69.3038 15.2646 69.3009 15.3371 69.2688 15.4038C69.2609 15.4203 69.2525 15.4366 69.2449 15.4532C69.2175 15.5131 69.1842 15.556 69.1454 15.5818C69.0572 15.655 68.9323 15.6918 68.7706 15.6918C68.6236 15.6771 68.4693 15.6696 68.3076 15.6696H67.0946C66.8595 15.6696 66.6536 15.6625 66.4772 15.6478C66.3008 15.6185 66.1687 15.5305 66.0805 15.3841C65.9629 15.1937 65.8967 14.9594 65.882 14.6812C65.8681 14.4174 65.8342 14.1667 65.7806 13.9293C65.7748 13.9034 65.7721 13.8771 65.7705 13.8506C65.7692 13.8295 65.7668 13.8095 65.7634 13.7905C65.7569 13.7542 65.7498 13.7178 65.7498 13.6809V13.625C65.7498 13.5969 65.7462 13.569 65.7399 13.5417C65.7024 13.3786 65.6835 13.2093 65.6835 13.0337C65.6835 12.8389 65.6702 12.6639 65.6437 12.5087C65.6409 12.4927 65.6366 12.477 65.6328 12.4612C65.6226 12.4188 65.6173 12.3613 65.6172 12.2889C65.6172 12.2876 65.6171 12.2863 65.6169 12.285C65.6144 12.2717 65.6247 12.2594 65.6383 12.2594H68.8376Z" fill="white"/>
<path d="M81.9277 6.97082C82.1923 7.71769 82.479 8.45721 82.7877 9.18943C82.8079 9.2295 82.8211 9.26959 82.8274 9.30967C82.8332 9.34606 82.8374 9.38307 82.8513 9.41719C82.864 9.44822 82.8796 9.48214 82.8981 9.51892L83.427 10.9247C83.4858 11.0419 83.5302 11.1592 83.5596 11.2763C83.589 11.3788 83.6255 11.4887 83.6696 11.6058C83.7428 11.7852 83.8138 11.9647 83.8826 12.1441C83.9679 12.3664 83.8016 12.6027 83.5627 12.6027H80.6077C80.5875 12.6027 80.5697 12.5906 80.5607 12.5725C80.5166 12.4846 80.4504 12.4112 80.3622 12.3526C80.2807 12.285 80.1741 12.2363 80.0426 12.2062C80.0205 12.2012 79.9978 12.1991 79.9751 12.1991H79.8312C79.8031 12.1991 79.7751 12.1952 79.7474 12.1902C79.6994 12.1814 79.647 12.177 79.5903 12.177H75.2906C75.0113 12.1623 74.7908 12.2137 74.6291 12.3308C74.5116 12.4187 74.4306 12.5357 74.3865 12.6821C74.3424 12.8285 74.2909 12.9751 74.2321 13.1215C74.1145 13.3705 74.0114 13.634 73.9232 13.9122C73.8497 14.1758 73.7617 14.4397 73.6588 14.7033C73.6 14.8497 73.5412 15.0034 73.4824 15.1645C73.4383 15.3256 73.3574 15.45 73.2399 15.5379C73.1664 15.5965 73.0561 15.6403 72.9091 15.6696C72.7768 15.6843 72.6222 15.6918 72.4458 15.6918H71.9387C71.7624 15.6771 71.608 15.6696 71.4758 15.6696C71.2847 15.6696 71.0495 15.6771 70.7702 15.6918C70.5056 15.6918 70.3145 15.655 70.1969 15.5818C70.1313 15.5426 70.0892 15.486 70.0704 15.4119C70.0658 15.3935 70.0645 15.3745 70.0649 15.3556C70.0663 15.2773 70.0734 15.1989 70.0865 15.1206C70.1159 15.0181 70.1453 14.9229 70.1746 14.835C70.204 14.7472 70.2334 14.674 70.2628 14.6155C70.4098 14.2786 70.5422 13.9342 70.6598 13.5827C70.7921 13.2313 70.9246 12.8872 71.0569 12.5504C71.1156 12.4333 71.1597 12.3162 71.1891 12.1991C71.2185 12.0819 71.2625 11.9646 71.3213 11.8475C71.4389 11.5399 71.5567 11.2251 71.6743 10.9029C71.7919 10.5808 71.9093 10.2659 72.0269 9.95835C72.1445 9.66548 72.2547 9.37985 72.3576 9.10161C72.4042 8.96902 72.4528 8.83656 72.5027 8.70407C72.5527 8.57116 72.6808 8.48386 72.8233 8.48386H75.6989C75.7686 8.48386 75.8177 8.55176 75.7977 8.61827C75.7536 8.75007 75.7095 8.89661 75.6654 9.0577C75.6253 9.16442 75.6276 9.2834 75.6728 9.41444C75.6818 9.44043 75.6948 9.46503 75.7132 9.48552C75.7873 9.56807 75.8964 9.61584 76.0403 9.62886C76.2166 9.64351 76.3931 9.65065 76.5695 9.65065H78.6862C78.8479 9.65065 78.9875 9.63602 79.1051 9.60674C79.2962 9.53352 79.3846 9.40908 79.3699 9.23334C79.3552 9.05766 79.3112 8.88926 79.2377 8.72821C79.2083 8.66963 79.1933 8.61829 79.1933 8.57436C79.1933 8.51579 79.1786 8.45729 79.1492 8.39872C78.9581 7.90084 78.782 7.39553 78.6203 6.883C78.6022 6.82581 78.6441 6.7677 78.7043 6.7677H81.6426C81.7714 6.7677 81.887 6.84908 81.9277 6.97082Z" fill="white"/>
<path d="M5.28386 11.1007C5.28385 11.2178 5.27667 11.3349 5.26199 11.452C5.26199 11.539 5.27256 11.6261 5.29375 11.7132C5.30129 11.7442 5.30607 11.7758 5.30607 11.8077V12.2585C5.30607 12.2774 5.30754 12.2963 5.31104 12.3149C5.32554 12.3919 5.34578 12.4632 5.37201 12.5286C5.47492 12.7189 5.6808 12.8141 5.98943 12.8142H11.6124C11.7888 12.7995 11.9578 12.7995 12.1195 12.8142C12.2812 12.8142 12.4283 12.8288 12.5606 12.8581C12.7076 12.8874 12.8032 12.9312 12.8473 12.9898C12.9208 13.0777 12.9576 13.1875 12.9576 13.3193V15.0523C12.9576 15.0685 12.9589 15.0847 12.9607 15.1009C12.971 15.193 12.9625 15.2728 12.9354 15.3401C12.8838 15.4429 12.821 15.5176 12.7468 15.564C12.7263 15.5768 12.7059 15.59 12.6853 15.6027C12.6129 15.6473 12.5126 15.6696 12.3843 15.6696H2.83641C2.6306 15.6696 2.44664 15.6625 2.28494 15.6478C2.13795 15.6185 2.02769 15.5451 1.95419 15.428C1.89544 15.3401 1.86604 15.2302 1.86604 15.0985V11.2297C1.86604 11.0402 2.0203 10.8865 2.21058 10.8865H5.06886C5.1876 10.8865 5.28386 10.9824 5.28386 11.1007Z" fill="white"/>
<path d="M47.334 14.7251C47.334 14.8862 47.3268 15.0473 47.3121 15.2084C47.3121 15.3549 47.2678 15.4647 47.1796 15.5379C47.0914 15.6111 46.9811 15.655 46.8488 15.6696H44.7967C44.7686 15.6696 44.7405 15.6661 44.7131 15.6595C44.6125 15.6353 44.5232 15.6168 44.4454 15.6039C44.3719 15.5893 44.3057 15.5379 44.2469 15.4501C44.1881 15.3769 44.1588 15.2816 44.1588 15.1645V8.48386C44.1588 8.2943 44.313 8.14063 44.5033 8.14063H46.9895C47.1797 8.14063 47.334 8.2943 47.334 8.48386V14.7251Z" fill="white"/>
<path d="M53.3588 12.2594C53.3588 12.449 53.2045 12.6027 53.0142 12.6027H50.2855C50.0952 12.6027 49.9409 12.449 49.9409 12.2594V8.48386C49.9409 8.2943 50.0952 8.14063 50.2855 8.14063H53.0142C53.2045 8.14063 53.3588 8.2943 53.3588 8.48386V12.2594Z" fill="white"/>
<path d="M5.28386 9.17033C5.28386 9.35989 5.1296 9.51356 4.93932 9.51356H2.21058C2.0203 9.51356 1.86604 9.35989 1.86604 9.17033V5.39476C1.86604 5.2052 2.0203 5.05153 2.21058 5.05153H4.93932C5.1296 5.05153 5.28386 5.2052 5.28386 5.39476V9.17033Z" fill="white"/>
<path d="M26.9987 0.00727929C27.1163 -0.00736339 27.2265 0.000121573 27.3294 0.0294017C27.5352 0.0733359 27.6677 0.146437 27.7265 0.24895C27.7999 0.366089 27.8293 0.534473 27.8146 0.754079V8.14063C27.8146 8.33019 27.6604 8.48386 27.4701 8.48386H24.7413C24.5511 8.48386 24.3968 8.33019 24.3968 8.14063V1.43518C24.3968 1.23016 24.3893 1.00304 24.3746 0.754079C24.3746 0.505169 24.419 0.322183 24.5072 0.20504C24.5807 0.117205 24.6834 0.0658367 24.8157 0.051189C24.948 0.0218993 25.0951 0.00727929 25.2568 0.00727929H26.9987Z" fill="white"/>
<path d="M78.7744 0.0294017C78.9507 0.0147603 79.0904 0.0440307 79.1933 0.117221C79.3549 0.20507 79.458 0.336733 79.5022 0.512408C79.561 0.6735 79.6272 0.842138 79.7007 1.01787C79.8036 1.2668 79.8991 1.51575 79.9873 1.76467C80.0755 1.99897 80.1711 2.24074 80.274 2.48969L80.4503 3.0166C80.5679 3.30949 80.6782 3.60257 80.7811 3.89547C80.884 4.17371 80.9942 4.45932 81.1118 4.75221C81.1356 4.81156 81.1593 4.87099 81.1828 4.93046C81.2711 5.15411 81.1044 5.39476 80.8632 5.39476H78.1418C78.1095 5.39476 78.0808 5.37502 78.0688 5.34516C78.0394 5.27196 78.01 5.18414 77.9807 5.0817C77.9513 4.96454 77.9144 4.86186 77.8703 4.77399C77.8262 4.67158 77.7749 4.58371 77.7162 4.51054C77.6709 4.45408 77.6167 4.41933 77.5538 4.40637C77.517 4.39878 77.4815 4.41668 77.4514 4.43914L77.3632 4.49411C77.3486 4.50507 77.3338 4.51773 77.3192 4.53232C77.2016 4.67875 77.1132 4.85458 77.0544 5.05958C77.0103 5.2646 76.9516 5.46248 76.8781 5.65286C76.7017 6.06286 76.5399 6.48014 76.3929 6.90479C76.3545 7.02792 76.2392 7.11093 76.1097 7.11093H73.6348C73.3934 7.11093 73.2268 6.86995 73.3099 6.64417C73.4151 6.35855 73.5168 6.07204 73.6147 5.78459C73.9087 4.96454 74.2247 4.15183 74.5628 3.34643C74.5922 3.27323 74.6144 3.20723 74.6291 3.14867C74.6438 3.0901 74.6657 3.02411 74.6951 2.9509C74.8127 2.64337 74.9304 2.32852 75.048 2.00634C75.1656 1.68417 75.2905 1.36931 75.4228 1.06178C75.4963 0.900695 75.555 0.739527 75.5992 0.57844C75.6579 0.402724 75.7535 0.263639 75.8858 0.161131C75.9534 0.120763 76.0395 0.0864872 76.1443 0.0584689C76.163 0.0534691 76.1809 0.0453485 76.1999 0.0417812C76.2055 0.0407413 76.211 0.0402224 76.2166 0.0402242C76.2467 0.0402342 76.2755 0.0529785 76.3047 0.0457691C76.334 0.0385603 76.3645 0.0294017 76.3946 0.0294017H78.7744Z" fill="white"/>
<path d="M46.7607 0.0294017C46.8921 0.0294017 46.9942 0.0527924 47.0669 0.0996192C47.0838 0.110518 47.1005 0.121772 47.1175 0.132541C47.2618 0.223954 47.334 0.387175 47.334 0.62235V6.42446C47.334 6.61402 47.1797 6.7677 46.9895 6.7677H44.3738C44.2428 6.7677 44.1366 6.6619 44.1366 6.53139C44.1513 6.39961 44.1441 6.27513 44.1147 6.15799C44.0853 6.05549 44.0706 5.94564 44.0706 5.8285C44.0706 5.71142 44.0265 5.63826 43.9384 5.60895C43.9157 5.60142 43.895 5.59966 43.8761 5.60371C43.8399 5.6115 43.8214 5.64888 43.7994 5.67862C43.7943 5.68558 43.7891 5.69163 43.784 5.69677C43.7252 5.75534 43.6736 5.82847 43.6295 5.91632C43.6001 5.98954 43.5708 6.06298 43.5414 6.1362C43.4877 6.26996 43.4341 6.40648 43.3804 6.5457C43.3291 6.67911 43.2008 6.7677 43.0573 6.7677H40.7949C40.5605 6.7677 40.3945 6.53947 40.4675 6.31753C40.6249 5.83967 40.7822 5.3618 40.9395 4.88394C41.2335 3.97603 41.5274 3.0681 41.8214 2.16019C41.8949 1.92588 41.9686 1.69876 42.0421 1.47909C42.1156 1.2448 42.189 1.01049 42.2625 0.776202C42.3066 0.659045 42.3506 0.541746 42.3947 0.424589C42.4388 0.307458 42.5197 0.21222 42.6373 0.139008C42.7255 0.0658099 42.8358 0.0294071 42.968 0.0294017H46.7607Z" fill="white"/>
<path d="M53.3588 6.42446C53.3588 6.61402 53.2045 6.7677 53.0142 6.7677H50.2855C50.0952 6.7677 49.9409 6.61402 49.9409 6.42446V4.7083C49.9409 4.51873 50.0952 4.36506 50.2855 4.36506H53.0142C53.2045 4.36506 53.3588 4.51873 53.3588 4.7083V6.42446Z" fill="white"/>
<path d="M64.1398 0.0294017C64.3749 0.0294017 64.5955 0.036551 64.8013 0.051189C65.0118 0.051189 65.2091 0.0713615 65.3928 0.111424C65.4101 0.115187 65.4269 0.120673 65.4435 0.126557C65.5088 0.149618 65.5742 0.161131 65.6394 0.161131C65.7276 0.161138 65.8085 0.175759 65.882 0.20504C65.9849 0.234314 66.0877 0.263587 66.1906 0.29286C66.2935 0.322149 66.3965 0.358868 66.4994 0.402802C66.8669 0.563864 67.2049 0.761497 67.5135 0.99575C67.8222 1.23006 68.0796 1.50105 68.2854 1.80858C68.3362 1.87184 68.376 1.94061 68.4048 2.01481C68.4139 2.03816 68.424 2.06115 68.4374 2.08234C68.4725 2.13784 68.5119 2.19332 68.5554 2.24882C68.5664 2.26285 68.5766 2.27755 68.5853 2.29309C68.6963 2.49091 68.7803 2.69563 68.8369 2.90699C68.8956 3.12659 68.9616 3.36818 69.035 3.63167C69.0463 3.67642 69.0489 3.72131 69.043 3.76613C69.0393 3.79397 69.0342 3.82195 69.0376 3.84983C69.0399 3.86922 69.0439 3.88861 69.0494 3.908C69.0641 3.95922 69.0791 4.01101 69.0791 4.06428V4.13879C69.0791 4.16686 69.0829 4.19473 69.0883 4.22227C69.1099 4.332 69.1143 4.46478 69.1013 4.62048C69.0866 4.78149 69.0644 4.91319 69.035 5.01567C69.0298 5.03652 69.0117 5.05153 68.9901 5.05153H66.0126C65.8195 5.05153 65.6644 4.89275 65.6413 4.70168C65.6407 4.69653 65.6401 4.69136 65.6394 4.68617C65.6262 4.47517 65.6069 4.31157 65.5817 4.19556C65.5764 4.17111 65.5671 4.1478 65.5573 4.12474C65.5385 4.08029 65.5291 4.04051 65.5291 4.00541C65.5291 3.9723 65.5207 3.93904 65.504 3.90585C65.4928 3.88347 65.4805 3.86149 65.471 3.83833C65.2917 3.40244 64.9728 3.08457 64.5146 2.88487C64.2648 2.76778 63.9782 2.70176 63.6549 2.68711C63.3316 2.67247 62.9933 2.66532 62.6405 2.66532H60.1471C60.1058 2.66532 60.0653 2.68936 60.0266 2.7034C60.0039 2.71164 59.9836 2.70262 59.9605 2.69551C59.9528 2.69315 59.9451 2.69128 59.9374 2.68991C59.9168 2.68625 59.8957 2.68952 59.8756 2.69516C59.7161 2.73977 59.6088 2.81052 59.5534 2.90699C59.5226 2.95621 59.4719 2.99213 59.4136 2.99213H56.3698C56.1795 2.99213 56.0253 2.83846 56.0253 2.6489V1.19351C56.0253 1.03246 56.0181 0.864074 56.0034 0.688382C56.0034 0.512647 56.0399 0.373249 56.1134 0.270737C56.1722 0.182917 56.2825 0.109747 56.4442 0.051189C56.4552 0.0456758 56.4663 0.0422479 56.4774 0.0408979C56.5144 0.0363886 56.5564 0.0529728 56.5929 0.0457844C56.6296 0.0385856 56.6621 0.0294017 56.6995 0.0294017H64.1398Z" fill="white"/>
<path d="M4.3579 0.0294017C4.51956 0.0294061 4.67392 0.0365481 4.82088 0.051189C4.98254 0.0512015 5.1 0.102566 5.1735 0.20504C5.247 0.307549 5.28386 0.446626 5.28386 0.62235V3.33537C5.28386 3.52493 5.1296 3.6786 4.93932 3.6786H2.21058C2.0203 3.6786 1.86604 3.52493 1.86604 3.33537V0.57844C1.88074 0.446639 1.91009 0.34396 1.95419 0.270737C2.00984 0.173817 2.11824 0.103103 2.27906 0.0585669C2.29764 0.0534214 2.31555 0.0453881 2.33449 0.04181C2.34007 0.0407578 2.34564 0.0402303 2.35121 0.0402282C2.38137 0.0402168 2.41013 0.0529798 2.4394 0.0457682C2.46864 0.0385648 2.49913 0.0294017 2.52926 0.0294017H4.3579Z" fill="white"/>
<path d="M16.8997 0.00727929C17.0613 0.00728231 17.2157 0.0147603 17.3626 0.0294017C17.5243 0.0440501 17.6421 0.0950553 17.7156 0.182918C17.7891 0.300075 17.8256 0.454093 17.8256 0.644473C17.8403 0.820169 17.8478 1.00318 17.8478 1.19351V3.33537C17.8478 3.52493 17.6936 3.6786 17.5033 3.6786H14.7745C14.5843 3.6786 14.43 3.52493 14.43 3.33537V0.600563C14.43 0.474634 14.4462 0.37022 14.4788 0.287566C14.4891 0.26143 14.5049 0.237856 14.5246 0.217759C14.5986 0.142204 14.6907 0.084713 14.8009 0.0451692C14.8324 0.0338436 14.8659 0.0294017 14.8995 0.0294017H14.9371C14.9405 0.0294017 14.944 0.029297 14.9475 0.0290882C15.0009 0.0258806 15.0531 0.00727929 15.1065 0.00727929H16.8997Z" fill="white"/>
<path d="M52.4328 0.051189C52.5945 0.0511902 52.7488 0.0586703 52.8958 0.0733114C53.0427 0.0733114 53.153 0.124396 53.2265 0.226828C53.3 0.329336 53.3369 0.46127 53.3369 0.62235C53.3516 0.783441 53.3588 0.959222 53.3588 1.1496V2.6489C53.3588 2.83846 53.2045 2.99213 53.0142 2.99213H50.2855C50.0952 2.99213 49.9409 2.83846 49.9409 2.6489V1.61082C49.9409 1.40581 49.9338 1.16403 49.9191 0.885808C49.9191 0.607698 49.9556 0.410001 50.0291 0.29286C50.0792 0.218045 50.156 0.153883 50.2594 0.100312C50.296 0.0813551 50.3371 0.0733114 50.3783 0.0733114C50.41 0.0733114 50.4412 0.0674292 50.472 0.0600302C50.4964 0.0541621 50.5179 0.051189 50.5365 0.051189H52.4328Z" fill="white"/>
<path d="M0 4.02175C0 3.83219 0.154256 3.67851 0.344541 3.67851H3.10087C3.29115 3.67851 3.44541 3.83219 3.44541 4.02175V4.70821C3.44541 4.89778 3.29115 5.05145 3.10087 5.05145H0.344541C0.154256 5.05145 0 4.89778 0 4.70821V4.02175Z" fill="white"/>
<path d="M3.78995 9.85671C3.78995 9.66715 3.94421 9.51348 4.13449 9.51348H6.89082C7.0811 9.51348 7.23536 9.66715 7.23536 9.85671V10.5432C7.23536 10.7327 7.0811 10.8864 6.89082 10.8864H4.13449C3.94421 10.8864 3.78995 10.7327 3.78995 10.5432V9.85671Z" fill="white"/>
<path d="M12.4035 4.02175C12.4035 3.83219 12.5577 3.67851 12.748 3.67851H15.5043C15.6946 3.67851 15.8489 3.83219 15.8489 4.02175V4.70821C15.8489 4.89778 15.6946 5.05145 15.5043 5.05145H12.748C12.5577 5.05145 12.4035 4.89778 12.4035 4.70821V4.02175Z" fill="white"/>
<path d="M23.0842 8.82701C23.0842 8.63745 23.2385 8.48378 23.4288 8.48378H26.1851C26.3754 8.48378 26.5297 8.63745 26.5297 8.82701V9.51348C26.5297 9.70304 26.3754 9.85671 26.1851 9.85671H23.4288C23.2385 9.85671 23.0842 9.70304 23.0842 9.51348V8.82701Z" fill="white"/>
<path d="M31.6978 13.6323C31.6978 13.4427 31.852 13.289 32.0423 13.289H34.7986C34.9889 13.289 35.1432 13.4427 35.1432 13.6323V14.3187C35.1432 14.5083 34.9889 14.662 34.7986 14.662H32.0423C31.852 14.662 31.6978 14.5083 31.6978 14.3187V13.6323Z" fill="white"/>
<path d="M38.9331 7.11084C38.9331 6.92128 39.0874 6.76761 39.2777 6.76761H42.034C42.2243 6.76761 42.3785 6.92128 42.3785 7.11084V7.79731C42.3785 7.98687 42.2243 8.14054 42.034 8.14054H39.2777C39.0874 8.14054 38.9331 7.98687 38.9331 7.79731V7.11084Z" fill="white"/>
<path d="M43.4122 7.11084C43.4122 6.92128 43.5664 6.76761 43.7567 6.76761H46.513C46.7033 6.76761 46.8576 6.92128 46.8576 7.11084V7.79731C46.8576 7.98687 46.7033 8.14054 46.513 8.14054H43.7567C43.5664 8.14054 43.4122 7.98687 43.4122 7.79731V7.11084Z" fill="white"/>
<path d="M51.3366 3.33528C51.3366 3.14572 51.4909 2.99205 51.6811 2.99205H54.4375C54.6278 2.99205 54.782 3.14572 54.782 3.33528V4.02175C54.782 4.21131 54.6278 4.36498 54.4375 4.36498H51.6811C51.4909 4.36498 51.3366 4.21131 51.3366 4.02175V3.33528Z" fill="white"/>
<path d="M57.1938 3.33528C57.1938 3.14572 57.3481 2.99205 57.5383 2.99205H60.2947C60.485 2.99205 60.6392 3.14572 60.6392 3.33528V4.02175C60.6392 4.21131 60.485 4.36498 60.2947 4.36498H57.5383C57.3481 4.36498 57.1938 4.21131 57.1938 4.02175V3.33528Z" fill="white"/>
<path d="M48.9248 7.11084C48.9248 6.92128 49.0791 6.76761 49.2694 6.76761H52.0257C52.216 6.76761 52.3702 6.92128 52.3702 7.11084V7.79731C52.3702 7.98687 52.216 8.14054 52.0257 8.14054H49.2694C49.0791 8.14054 48.9248 7.98687 48.9248 7.79731V7.11084Z" fill="white"/>
<path d="M50.9921 12.9458C50.9921 12.7562 51.1463 12.6026 51.3366 12.6026H54.0929C54.2832 12.6026 54.4375 12.7562 54.4375 12.9458V13.6323C54.4375 13.8218 54.2832 13.9755 54.0929 13.9755H51.3366C51.1463 13.9755 50.9921 13.8218 50.9921 13.6323V12.9458Z" fill="white"/>
<path d="M66.4964 11.2296C66.4964 11.0401 66.6507 10.8864 66.8409 10.8864H69.5973C69.7876 10.8864 69.9418 11.0401 69.9418 11.2296V11.9161C69.9418 12.1057 69.7876 12.2593 69.5973 12.2593H66.8409C66.6507 12.2593 66.4964 12.1057 66.4964 11.9161V11.2296Z" fill="white"/>
<path d="M64.0846 5.39468C64.0846 5.20512 64.2389 5.05145 64.4292 5.05145H67.1855C67.3758 5.05145 67.53 5.20512 67.53 5.39468V6.08115C67.53 6.27071 67.3758 6.42438 67.1855 6.42438H64.4292C64.2389 6.42438 64.0846 6.27071 64.0846 6.08115V5.39468Z" fill="white"/>
<path d="M72.0091 7.45408C72.0091 7.26452 72.1633 7.11084 72.3536 7.11084H75.1099C75.3002 7.11084 75.4545 7.26452 75.4545 7.45408V8.14054C75.4545 8.33011 75.3002 8.48378 75.1099 8.48378H72.3536C72.1633 8.48378 72.0091 8.33011 72.0091 8.14054V7.45408Z" fill="white"/>
<path d="M79.589 5.73791C79.589 5.54835 79.7432 5.39468 79.9335 5.39468H82.6898C82.8801 5.39468 83.0344 5.54835 83.0344 5.73791V6.42438C83.0344 6.61394 82.8801 6.76761 82.6898 6.76761H79.9335C79.7432 6.76761 79.589 6.61394 79.589 6.42438V5.73791Z" fill="white"/>
<path d="M78.8999 12.9458C78.8999 12.7562 79.0541 12.6026 79.2444 12.6026H82.0007C82.191 12.6026 82.3453 12.7562 82.3453 12.9458V13.6323C82.3453 13.8218 82.191 13.9755 82.0007 13.9755H79.2444C79.0541 13.9755 78.8999 13.8218 78.8999 13.6323V12.9458Z" fill="white"/>
</svg>
