<svg width="300" height="300" viewBox="0 0 300 300" fill="none" xmlns="http://www.w3.org/2000/svg">
<rect width="300" height="300" fill="#E60B40"/>
<path fill-rule="evenodd" clip-rule="evenodd" d="M183.938 208.782C175.79 213.487 167.581 217.679 159.422 221.34C156.132 218.475 152.79 215.301 149.427 211.822C147.62 209.952 145.816 208.004 144.021 205.98C153.796 201.978 163.819 197.082 173.842 191.296C196.812 178.034 204.557 149.128 191.295 126.158C174.802 97.5909 154.684 75.291 135.91 62.1741C116.4 48.543 101.672 46.8678 93.2605 51.7244C84.8485 56.581 78.9356 70.173 80.9854 93.8848C81.7549 102.786 92.1796 106.527 99.5814 101.523C104.856 97.9566 110.358 94.5117 116.062 91.2185C124.21 86.5145 132.419 82.3225 140.578 78.6608C145.681 83.1062 150.855 88.2456 155.979 94.021C146.204 98.0235 136.181 102.919 126.158 108.705C103.189 121.967 95.4432 150.872 108.705 173.842C125.198 202.409 145.316 224.709 164.09 237.826C183.6 251.457 198.327 253.132 206.739 248.276C213.173 244.561 218.229 235.863 219.238 220.573C220.268 204.961 201.626 198.197 188.219 206.26C186.805 207.11 185.378 207.951 183.938 208.782ZM254.378 147.475C242.794 164.056 237.006 184.293 238.941 204.427C239.545 210.71 239.731 216.669 239.386 221.902C238.176 240.243 231.703 257.179 216.835 265.762C197.612 276.861 173.488 269.024 152.525 254.378C130.826 239.218 108.849 214.475 91.2179 183.938C87.9247 178.234 84.8824 172.5 82.0973 166.773C78.1895 158.739 67.2912 156.766 62.1741 164.09C48.543 183.601 46.8678 198.328 51.7244 206.74C56.581 215.152 70.173 221.065 93.8848 219.015C96.4396 218.794 99.0666 218.482 101.758 218.079C106.553 224.397 111.51 230.332 116.572 235.837C109.329 237.45 102.315 238.554 95.6239 239.132C70.1464 241.334 45.3364 236.06 34.2376 216.836C23.1388 197.612 30.9757 173.489 45.6218 152.526C57.1765 135.988 62.606 115.724 60.8685 95.6238C58.666 70.1463 63.9408 45.3364 83.1645 34.2376C102.388 23.1388 126.512 30.9757 147.474 45.6218C169.173 60.7821 191.151 85.5246 208.782 116.062C212.079 121.772 215.121 127.507 217.903 133.228C221.811 141.262 232.709 143.234 237.826 135.911C251.457 116.4 253.132 101.673 248.276 93.261C243.419 84.8491 229.827 78.9362 206.115 80.986C203.56 81.2069 200.933 81.519 198.241 81.9225C193.457 75.6188 188.501 69.6822 183.428 64.164C190.67 62.551 197.685 61.4474 204.376 60.869C229.854 58.6666 254.664 63.9414 265.762 83.165C276.861 102.389 269.024 126.512 254.378 147.475Z" fill="#E1E1E1"/>
</svg>
